<svg id="header" xmlns="http://www.w3.org/2000/svg" width="1352" height="157" viewBox="0 0 1352 157">
  <text id="Kid_s_Zone" data-name="Kid&apos;s Zone" transform="translate(452.199 116)" fill="#0f0700" font-size="120" font-family="TempusSansITC, Tempus Sans ITC"><tspan x="0" y="0">kid&apos;s zone</tspan></text>
  <g id="Polygon_1" data-name="Polygon 1" transform="translate(269.591 49)" fill="#33e89f">
    <path d="M 61.13806533813477 62.50003433227539 L 14.86193561553955 62.50003433227539 L 0.6101891398429871 24.26928329467773 L 38 0.5918222665786743 L 75.38980865478516 24.26928329467773 L 61.13806533813477 62.50003433227539 Z" stroke="none"/>
    <path d="M 38 1.183650970458984 L 1.220375061035156 24.47470092773438 L 15.20915222167969 62.00002670288086 L 60.79084777832031 62.00002670288086 L 74.77962493896484 24.47470092773438 L 38 1.183650970458984 M 38 3.814697265625e-06 L 76 24.06386947631836 L 61.48529052734375 63.00002670288086 L 14.51470947265625 63.00002670288086 L 0 24.06386947631836 L 38 3.814697265625e-06 Z" stroke="none" fill="#0c533b"/>
  </g>
  <g id="Polygon_3" data-name="Polygon 3" transform="translate(1125 34)" fill="#eafd65">
    <path d="M 83.21958923339844 83.59234619140625 C 82.91903686523438 83.59239959716797 82.63048553466797 83.49696350097656 82.3619384765625 83.3087158203125 L 55.93507385253906 64.78254699707031 C 55.51241302490234 64.48625183105469 55.01617431640625 64.32962799072266 54.5 64.32962799072266 C 53.98382568359375 64.32962799072266 53.48758697509766 64.48625183105469 53.06492614746094 64.78254699707031 L 26.63806343078613 83.3087158203125 C 26.36958694458008 83.49691009521484 26.08101272583008 83.59234619140625 25.78033828735352 83.59234619140625 C 25.27239990234375 83.59234619140625 24.77998733520508 83.31497192382812 24.49526214599609 82.86848449707031 C 24.33562469482422 82.6181640625 24.11319923400879 82.10071563720703 24.41699981689453 81.44772338867188 L 36.5218620300293 55.42922592163086 C 37.07903671264648 54.23162460327148 36.60496139526367 52.80205154418945 35.44260025024414 52.17466354370117 L 8.065637588500977 37.39818572998047 C 7.307712554931641 36.98911285400391 7.185050010681152 36.25994873046875 7.32298755645752 35.71397399902344 C 7.4554123878479 35.18982315063477 7.911749839782715 34.57775115966797 8.762012481689453 34.57775115966797 C 8.793325424194336 34.57775115966797 8.824912071228027 34.57857513427734 8.857000350952148 34.58027648925781 L 42.00962448120117 36.3266487121582 C 42.05347442626953 36.32894897460938 42.09799957275391 36.33012390136719 42.14193725585938 36.33013916015625 C 43.25023651123047 36.3302116394043 44.21127319335938 35.61733627319336 44.53336334228516 34.55623626708984 L 53.06467437744141 6.450112342834473 C 53.30286407470703 5.665387630462646 53.96228790283203 5.385799884796143 54.5 5.385799884796143 C 55.03770065307617 5.385799884796143 55.69713592529297 5.665387630462646 55.93532562255859 6.450112342834473 L 64.46663665771484 34.55623626708984 C 64.7886962890625 35.61726379394531 65.74972534179688 36.33013916015625 66.85802459716797 36.33013916015625 C 66.90192413330078 36.33013916015625 66.94644927978516 36.32896423339844 66.99036407470703 36.3266487121582 L 100.1429977416992 34.58026123046875 C 100.1749877929688 34.57857513427734 100.2067718505859 34.57773590087891 100.2379837036133 34.57773590087891 C 101.0883712768555 34.57773590087891 101.5447387695312 35.18977355957031 101.6771469116211 35.71387481689453 C 101.8150863647461 36.25986099243164 101.6923980712891 36.98905181884766 100.9343643188477 37.39818572998047 L 73.55740356445312 52.17466354370117 C 72.39503479003906 52.80205154418945 71.92095947265625 54.23162460327148 72.47813415527344 55.42922592163086 L 84.58301544189453 81.44772338867188 C 84.88672637939453 82.10054016113281 84.66436004638672 82.61791229248047 84.50477600097656 82.86820983886719 C 84.22004699707031 83.31478881835938 83.72758483886719 83.59226226806641 83.21958923339844 83.59234619140625 Z" stroke="none"/>
    <path d="M 54.4999885559082 5.885780334472656 C 54.3260383605957 5.885780334472656 53.74294662475586 5.936958312988281 53.54310607910156 6.595344543457031 L 45.01181411743164 34.70146560668945 C 44.62533569335938 35.97468948364258 43.47203826904297 36.83013153076172 42.14199829101562 36.83013153076172 C 42.08950805664062 36.83013153076172 42.03616333007812 36.82873153686523 41.98332977294922 36.82594299316406 L 8.83062744140625 35.07957077026367 C 8.807456970214844 35.07834243774414 8.784629821777344 35.07774353027344 8.762069702148438 35.07774353027344 C 8.199760437011719 35.0777702331543 7.900398254394531 35.46971893310547 7.807731628417969 35.83651733398438 C 7.76318359375 36.01287841796875 7.667236328125 36.61498260498047 8.303123474121094 36.95818328857422 L 35.68007659912109 51.73466491699219 C 37.07493591308594 52.48752975463867 37.64381408691406 54.20302581787109 36.97519683837891 55.64014434814453 L 24.87033081054688 81.65863800048828 C 24.67733001708984 82.07346343994141 24.78909301757812 82.39933013916016 24.91682434082031 82.59964752197266 C 25.10769653320312 82.89894104003906 25.44664001464844 83.09234619140625 25.78033447265625 83.09234619140625 C 25.97629547119141 83.09234619140625 26.16830444335938 83.02738189697266 26.35105133056641 82.89927673339844 L 52.77789306640625 64.37313079833984 C 53.28509521484375 64.01755523681641 53.88058853149414 63.82962417602539 54.5 63.82962417602539 C 55.11941146850586 63.82962417602539 55.71490478515625 64.01755523681641 56.22209167480469 64.37311553955078 L 82.64895629882812 82.89927673339844 C 82.83171081542969 83.02738189697266 83.02371978759766 83.09234619140625 83.21966552734375 83.09234619140625 C 83.55330657958984 83.09234619140625 83.89222717285156 82.89893341064453 84.08310699462891 82.59959411621094 C 84.21085357666016 82.39926147460938 84.32262420654297 82.07339477539062 84.12966918945312 81.65863800048828 L 72.02479553222656 55.64014434814453 C 71.356201171875 54.20302581787109 71.92507934570312 52.48752975463867 73.31991577148438 51.73466491699219 L 100.6968841552734 36.95818328857422 C 101.3329620361328 36.61486434936523 101.236946105957 36.01261138916016 101.1923599243164 35.83619689941406 C 101.0996932983398 35.46950531005859 100.8003463745117 35.07767868041992 100.2379837036133 35.07774353027344 C 100.2153701782227 35.07774353027344 100.1923446655273 35.0783576965332 100.1692962646484 35.07957077026367 L 67.01651000976562 36.82595825195312 C 66.9637451171875 36.82873153686523 66.91041564941406 36.83013153076172 66.85800170898438 36.83013153076172 C 65.52796173095703 36.83013153076172 64.37467956542969 35.97468948364258 63.98818588256836 34.70146560668945 L 55.45687866210938 6.595344543457031 C 55.25702667236328 5.936958312988281 54.67393493652344 5.885780334472656 54.4999885559082 5.885780334472656 M 54.49999237060547 4.885787963867188 C 55.31330108642578 4.885787963867188 56.12660598754883 5.35882568359375 56.41377258300781 6.304893493652344 L 64.94508361816406 34.4110107421875 C 65.21226501464844 35.2912483215332 66.04551696777344 35.87575912475586 66.96406555175781 35.82733154296875 L 100.1166915893555 34.08095932006836 C 102.2474060058594 33.96862030029297 103.0494918823242 36.82474136352539 101.1718521118164 37.83818435668945 L 73.79489135742188 52.61466598510742 C 72.86351013183594 53.11738586425781 72.48503112792969 54.25868988037109 72.93148040771484 55.21831893920898 L 85.03634643554688 81.23680877685547 C 85.89933776855469 83.09174346923828 83.75014495849609 84.89251708984375 82.07493591308594 83.71811676025391 L 55.64806747436523 65.19195556640625 C 54.95891952514648 64.70884704589844 54.04108047485352 64.70884704589844 53.35193252563477 65.19195556640625 L 26.92507934570312 83.71811676025391 C 25.24984741210938 84.89250946044922 23.10066986083984 83.09174346923828 23.96365356445312 81.23680877685547 L 36.06851959228516 55.21831893920898 C 36.51498413085938 54.25868988037109 36.13650512695312 53.11738586425781 35.20510864257812 52.61466598510742 L 7.828147888183594 37.83818435668945 C 5.95050048828125 36.82474517822266 6.752639770507812 33.96874618530273 8.883293151855469 34.08095932006836 L 42.03593444824219 35.82733154296875 C 42.95453643798828 35.87575531005859 43.78773498535156 35.29125213623047 44.05491638183594 34.4110107421875 L 52.58621215820312 6.304893493652344 C 52.87337875366211 5.35882568359375 53.68668746948242 4.885787963867188 54.49999237060547 4.885787963867188 Z" stroke="none" fill="#707070"/>
  </g>
  <g id="Polygon_4" data-name="Polygon 4" transform="translate(118 35)" fill="#eafd65">
    <path d="M 83.21958923339844 83.59234619140625 C 82.91903686523438 83.59239959716797 82.63048553466797 83.49696350097656 82.3619384765625 83.3087158203125 L 55.93507385253906 64.78254699707031 C 55.51241302490234 64.48625183105469 55.01617431640625 64.32962799072266 54.5 64.32962799072266 C 53.98382568359375 64.32962799072266 53.48758697509766 64.48625183105469 53.06492614746094 64.78254699707031 L 26.63806343078613 83.3087158203125 C 26.36958694458008 83.49691009521484 26.08101272583008 83.59234619140625 25.78033828735352 83.59234619140625 C 25.27239990234375 83.59234619140625 24.77998733520508 83.31497192382812 24.49526214599609 82.86848449707031 C 24.33562469482422 82.6181640625 24.11319923400879 82.10071563720703 24.41699981689453 81.44772338867188 L 36.5218620300293 55.42922592163086 C 37.07903671264648 54.23162460327148 36.60496139526367 52.80205154418945 35.44260025024414 52.17466354370117 L 8.065637588500977 37.39818572998047 C 7.307712554931641 36.98911285400391 7.185050010681152 36.25994873046875 7.32298755645752 35.71397399902344 C 7.4554123878479 35.18982315063477 7.911749839782715 34.57775115966797 8.762012481689453 34.57775115966797 C 8.793325424194336 34.57775115966797 8.824912071228027 34.57857513427734 8.857000350952148 34.58027648925781 L 42.00962448120117 36.3266487121582 C 42.05347442626953 36.32894897460938 42.09799957275391 36.33012390136719 42.14193725585938 36.33013916015625 C 43.25023651123047 36.3302116394043 44.21127319335938 35.61733627319336 44.53336334228516 34.55623626708984 L 53.06467437744141 6.450112342834473 C 53.30286407470703 5.665387630462646 53.96228790283203 5.385799884796143 54.5 5.385799884796143 C 55.03770065307617 5.385799884796143 55.69713592529297 5.665387630462646 55.93532562255859 6.450112342834473 L 64.46663665771484 34.55623626708984 C 64.7886962890625 35.61726379394531 65.74972534179688 36.33013916015625 66.85802459716797 36.33013916015625 C 66.90192413330078 36.33013916015625 66.94644927978516 36.32896423339844 66.99036407470703 36.3266487121582 L 100.1429977416992 34.58026123046875 C 100.1749877929688 34.57857513427734 100.2067718505859 34.57773590087891 100.2379837036133 34.57773590087891 C 101.0883712768555 34.57773590087891 101.5447387695312 35.18977355957031 101.6771469116211 35.71387481689453 C 101.8150863647461 36.25986099243164 101.6923980712891 36.98905181884766 100.9343643188477 37.39818572998047 L 73.55740356445312 52.17466354370117 C 72.39503479003906 52.80205154418945 71.92095947265625 54.23162460327148 72.47813415527344 55.42922592163086 L 84.58301544189453 81.44772338867188 C 84.88672637939453 82.10054016113281 84.66436004638672 82.61791229248047 84.50477600097656 82.86820983886719 C 84.22004699707031 83.31478881835938 83.72758483886719 83.59226226806641 83.21958923339844 83.59234619140625 Z" stroke="none"/>
    <path d="M 54.4999885559082 5.885780334472656 C 54.3260383605957 5.885780334472656 53.74294662475586 5.936958312988281 53.54310607910156 6.595344543457031 L 45.01181411743164 34.70146560668945 C 44.62533569335938 35.97468948364258 43.47203826904297 36.83013153076172 42.14199829101562 36.83013153076172 C 42.08950805664062 36.83013153076172 42.03616333007812 36.82873153686523 41.98332977294922 36.82594299316406 L 8.83062744140625 35.07957077026367 C 8.807456970214844 35.07834243774414 8.784629821777344 35.07774353027344 8.762069702148438 35.07774353027344 C 8.199760437011719 35.0777702331543 7.900398254394531 35.46971893310547 7.807731628417969 35.83651733398438 C 7.76318359375 36.01287841796875 7.667236328125 36.61498260498047 8.303123474121094 36.95818328857422 L 35.68007659912109 51.73466491699219 C 37.07493591308594 52.48752975463867 37.64381408691406 54.20302581787109 36.97519683837891 55.64014434814453 L 24.87033081054688 81.65863800048828 C 24.67733001708984 82.07346343994141 24.78909301757812 82.39933013916016 24.91682434082031 82.59964752197266 C 25.10769653320312 82.89894104003906 25.44664001464844 83.09234619140625 25.78033447265625 83.09234619140625 C 25.97629547119141 83.09234619140625 26.16830444335938 83.02738189697266 26.35105133056641 82.89927673339844 L 52.77789306640625 64.37313079833984 C 53.28509521484375 64.01755523681641 53.88058853149414 63.82962417602539 54.5 63.82962417602539 C 55.11941146850586 63.82962417602539 55.71490478515625 64.01755523681641 56.22209167480469 64.37311553955078 L 82.64895629882812 82.89927673339844 C 82.83171081542969 83.02738189697266 83.02371978759766 83.09234619140625 83.21966552734375 83.09234619140625 C 83.55330657958984 83.09234619140625 83.89222717285156 82.89893341064453 84.08310699462891 82.59959411621094 C 84.21085357666016 82.39926147460938 84.32262420654297 82.07339477539062 84.12966918945312 81.65863800048828 L 72.02479553222656 55.64014434814453 C 71.356201171875 54.20302581787109 71.92507934570312 52.48752975463867 73.31991577148438 51.73466491699219 L 100.6968841552734 36.95818328857422 C 101.3329620361328 36.61486434936523 101.236946105957 36.01261138916016 101.1923599243164 35.83619689941406 C 101.0996932983398 35.46950531005859 100.8003463745117 35.07767868041992 100.2379837036133 35.07774353027344 C 100.2153701782227 35.07774353027344 100.1923446655273 35.0783576965332 100.1692962646484 35.07957077026367 L 67.01651000976562 36.82595825195312 C 66.9637451171875 36.82873153686523 66.91041564941406 36.83013153076172 66.85800170898438 36.83013153076172 C 65.52796173095703 36.83013153076172 64.37467956542969 35.97468948364258 63.98818588256836 34.70146560668945 L 55.45687866210938 6.595344543457031 C 55.25702667236328 5.936958312988281 54.67393493652344 5.885780334472656 54.4999885559082 5.885780334472656 M 54.49999237060547 4.885787963867188 C 55.31330108642578 4.885787963867188 56.12660598754883 5.35882568359375 56.41377258300781 6.304893493652344 L 64.94508361816406 34.4110107421875 C 65.21226501464844 35.2912483215332 66.04551696777344 35.87575912475586 66.96406555175781 35.82733154296875 L 100.1166915893555 34.08095932006836 C 102.2474060058594 33.96862030029297 103.0494918823242 36.82474136352539 101.1718521118164 37.83818435668945 L 73.79489135742188 52.61466598510742 C 72.86351013183594 53.11738586425781 72.48503112792969 54.25868988037109 72.93148040771484 55.21831893920898 L 85.03634643554688 81.23680877685547 C 85.89933776855469 83.09174346923828 83.75014495849609 84.89251708984375 82.07493591308594 83.71811676025391 L 55.64806747436523 65.19195556640625 C 54.95891952514648 64.70884704589844 54.04108047485352 64.70884704589844 53.35193252563477 65.19195556640625 L 26.92507934570312 83.71811676025391 C 25.24984741210938 84.89250946044922 23.10066986083984 83.09174346923828 23.96365356445312 81.23680877685547 L 36.06851959228516 55.21831893920898 C 36.51498413085938 54.25868988037109 36.13650512695312 53.11738586425781 35.20510864257812 52.61466598510742 L 7.828147888183594 37.83818435668945 C 5.95050048828125 36.82474517822266 6.752639770507812 33.96874618530273 8.883293151855469 34.08095932006836 L 42.03593444824219 35.82733154296875 C 42.95453643798828 35.87575531005859 43.78773498535156 35.29125213623047 44.05491638183594 34.4110107421875 L 52.58621215820312 6.304893493652344 C 52.87337875366211 5.35882568359375 53.68668746948242 4.885787963867188 54.49999237060547 4.885787963867188 Z" stroke="none" fill="#707070"/>
  </g>
  <g id="Polygon_5" data-name="Polygon 5" transform="translate(1268 48)" fill="#de1f1f">
    <path d="M 83.08162689208984 64.5 L 0.9183698892593384 64.5 L 42 0.9212867617607117 L 83.08162689208984 64.5 Z" stroke="none"/>
    <path d="M 42 1.84259033203125 L 1.836753845214844 64 L 82.16324615478516 64 L 42 1.84259033203125 M 42 0 L 84 65 L 0 65 L 42 0 Z" stroke="none" fill="#707070"/>
  </g>
  <g id="Polygon_6" data-name="Polygon 6" transform="translate(0 49)" fill="#de1f1f">
    <path d="M 83.08162689208984 64.5 L 0.9183698892593384 64.5 L 42 0.9212867617607117 L 83.08162689208984 64.5 Z" stroke="none"/>
    <path d="M 42 1.84259033203125 L 1.836753845214844 64 L 82.16324615478516 64 L 42 1.84259033203125 M 42 0 L 84 65 L 0 65 L 42 0 Z" stroke="none" fill="#707070"/>
  </g>
  <g id="Polygon_7" data-name="Polygon 7" transform="translate(1006.409 46)" fill="#33e89f">
    <path d="M 61.13806533813477 62.50003433227539 L 14.86193561553955 62.50003433227539 L 0.6101891398429871 24.26928329467773 L 38 0.5918222665786743 L 75.38980865478516 24.26928329467773 L 61.13806533813477 62.50003433227539 Z" stroke="none"/>
    <path d="M 38 1.183650970458984 L 1.220375061035156 24.47470092773438 L 15.20915222167969 62.00002670288086 L 60.79084777832031 62.00002670288086 L 74.77962493896484 24.47470092773438 L 38 1.183650970458984 M 38 3.814697265625e-06 L 76 24.06386947631836 L 61.48529052734375 63.00002670288086 L 14.51470947265625 63.00002670288086 L 0 24.06386947631836 L 38 3.814697265625e-06 Z" stroke="none" fill="#0c533b"/>
  </g>
</svg>
