<svg id="Component_7_2" data-name="Component 7 – 2" xmlns="http://www.w3.org/2000/svg" width="1352" height="766.204" viewBox="0 0 1352 766.204">
  <g id="Rectangle_64" data-name="Rectangle 64" transform="matrix(0.799, -0.602, 0.602, 0.799, 114.591, 177.249)" fill="#f41616" stroke="#707070" stroke-width="1">
    <rect width="287.877" height="196.741" stroke="none"/>
    <rect x="0.5" y="0.5" width="286.877" height="195.741" fill="none"/>
  </g>
  <g id="Ellipse_3" data-name="Ellipse 3" transform="translate(1225 529)" fill="#03f143" stroke="#707070" stroke-width="1">
    <ellipse cx="55" cy="115" rx="55" ry="115" stroke="none"/>
    <ellipse cx="55" cy="115" rx="54.5" ry="114.5" fill="none"/>
  </g>
  <g id="Polygon_11" data-name="Polygon 11" transform="matrix(0.809, 0.588, -0.588, 0.809, 878.979, 51.043)" fill="#052cf6">
    <path d="M 452.1925659179688 454.5 L 0.8074391484260559 454.5 L 226.5 1.122007966041565 L 452.1925659179688 454.5 Z" stroke="none"/>
    <path d="M 226.5 2.2440185546875 L 1.6148681640625 454 L 451.3851318359375 454 L 226.5 2.2440185546875 M 226.5 0 L 453 455 L 0 455 L 226.5 0 Z" stroke="none" fill="#707070"/>
  </g>
  <g id="Polygon_12" data-name="Polygon 12" transform="translate(736.769 120.062)" fill="#ee1cd9">
    <path d="M 327.5198059082031 302.9214477539062 L 203.2382049560547 235.5839538574219 L 203 235.4548950195312 L 202.7617950439453 235.5839538574219 L 78.48018646240234 302.9214477539062 L 121.352653503418 189.2293548583984 L 121.4994964599609 188.8399047851562 L 121.1430969238281 188.6248474121094 L 1.738717198371887 116.5828018188477 L 152.2600555419922 113.552848815918 L 152.5765075683594 113.546501159668 L 152.7061462402344 113.257698059082 L 203 1.220889925956726 L 253.2938537597656 113.257698059082 L 253.4234924316406 113.546501159668 L 253.7399444580078 113.552848815918 L 404.2612915039062 116.5827560424805 L 284.8569641113281 188.6248474121094 L 284.5005493164062 188.8399047851562 L 284.6473999023438 189.2293548583984 L 327.5198059082031 302.9214477539062 Z" stroke="none"/>
    <path d="M 203 2.44183349609375 L 152.9030456542969 114.0399932861328 L 152.2701568603516 114.0527496337891 L 3.477508544921875 117.0478515625 L 122.1141967773438 188.6268005371094 L 121.8204650878906 189.4057922363281 L 79.42132568359375 301.8428344726562 L 203 234.8861999511719 L 203.4763946533203 235.1443023681641 L 326.5786437988281 301.8428344726562 L 283.8858032226562 188.6268005371094 L 402.5224914550781 117.0478515625 L 253.0969543457031 114.0399932861328 L 203 2.44183349609375 M 203 0 L 253.75 113.0529479980469 L 406 116.1176452636719 L 285.115234375 189.0529479980469 L 328.4608459472656 304 L 203 236.0235595703125 L 77.53909301757812 304 L 120.8847351074219 189.0529479980469 L 0 116.1176452636719 L 152.25 113.0529479980469 L 203 0 Z" stroke="none" fill="#707070"/>
  </g>
  <g id="Polygon_13" data-name="Polygon 13" transform="translate(298.694 353.565)" fill="#f47506">
    <path d="M 223.2471466064453 297.5 L 92.75281524658203 297.5 L 0.5000000596046448 210.5020599365234 L 0.5000416040420532 87.49790191650391 L 92.75285339355469 0.5000000596046448 L 223.2471466064453 0.5000416040420532 L 315.5 87.49794006347656 L 315.4999694824219 210.5021057128906 L 223.2471466064453 297.5 Z" stroke="none"/>
    <path d="M 92.95146179199219 1 L 1.000030517578125 87.71366882324219 L 1 210.2862854003906 L 92.951416015625 297 L 223.0485382080078 297 L 314.9999694824219 210.2863159179688 L 315 87.71371459960938 L 223.0485382080078 1.000030517578125 L 92.95146179199219 1 M 92.55429077148438 0 L 223.4457092285156 3.0517578125e-05 L 316 87.28221130371094 L 315.9999694824219 210.7178344726562 L 223.4457092285156 298 L 92.55424499511719 298 L 0 210.7177886962891 L 3.0517578125e-05 87.28216552734375 L 92.55429077148438 0 Z" stroke="none" fill="#707070"/>
  </g>
  <g id="Polygon_14" data-name="Polygon 14" transform="translate(205.014 509.992) rotate(47)" fill="#79fe04">
    <path d="M 172.1662139892578 161.5 L 0.8337858915328979 161.5 L 86.5 1.061541199684143 L 172.1662139892578 161.5 Z" stroke="none"/>
    <path d="M 86.5 2.123123168945312 L 1.667587280273438 161 L 171.3324127197266 161 L 86.5 2.123123168945312 M 86.5 0 L 173 162 L 0 162 L 86.5 0 Z" stroke="none" fill="#707070"/>
  </g>
  <g id="Ellipse_4" data-name="Ellipse 4" transform="translate(620.622 66.717)" fill="#0a97e9" stroke="#707070" stroke-width="1">
    <ellipse cx="109" cy="106.5" rx="109" ry="106.5" stroke="none"/>
    <ellipse cx="109" cy="106.5" rx="108.5" ry="106" fill="none"/>
  </g>
  <g id="Rectangle_65" data-name="Rectangle 65" transform="translate(508.12 624)" fill="#eafc0d" stroke="#707070" stroke-width="1">
    <rect width="519" height="123" stroke="none"/>
    <rect x="0.5" y="0.5" width="518" height="122" fill="none"/>
  </g>
  <g id="Rectangle_66" data-name="Rectangle 66" transform="translate(1145 66)" fill="#977f06" stroke="#707070" stroke-width="1">
    <rect width="142" height="135" stroke="none"/>
    <rect x="0.5" y="0.5" width="141" height="134" fill="none"/>
  </g>
  <path id="Path_7" data-name="Path 7" d="M-176.536,343.831C-329.323,742.791-246.63,816.78-246.63,816.78S-491.809,663-559.995,705.071-246.63,757.3-246.63,757.3" transform="translate(1422 -51)" fill="#f31414" stroke="#707070" stroke-width="1"/>
  <path id="Path_8" data-name="Path 8" d="M-1083.72,69c-333.676,112.345-371.4,183.433-371.4,183.433s136.372-43.523,103,72.538S-1240.4,182.8-1240.4,182.8s24.663,206.008,114.61,142.175S-1517.5,182.8-1517.5,182.8" transform="translate(1809.421 -3.146)" fill="#e7fa69" stroke="#707070" stroke-width="1"/>
  <path id="Path_9" data-name="Path 9" d="M-1936.77,330.373c230.671,119.364,204.558,191.9,204.558,191.9s-15.958-166.838,44.974-136.372S-1897.6,390.255-1903.4,436.68" transform="translate(1990 -25.068)" fill="#1aec9f" stroke="#707070" stroke-width="1"/>
  <g id="Rectangle_63" data-name="Rectangle 63" fill="#fff" stroke="#707070" stroke-width="1" opacity="0.54">
    <rect width="1352" height="766" stroke="none"/>
    <rect x="0.5" y="0.5" width="1351" height="765" fill="none"/>
  </g>
  <line id="Line_7" data-name="Line 7" x2="1242" transform="translate(55.892 546.354)" fill="none" stroke="#000" stroke-width="8"/>
  <text id="kid_s_zone" data-name="kid&apos;s zone" transform="translate(56.481 518.561)" stroke="#0c0c0c" stroke-width="8" font-size="300" font-family="TempusSansITC, Tempus Sans ITC"><tspan x="0" y="0">kid&apos;s zone</tspan></text>
</svg>
